<?xml version="1.0" ?><svg id="Layer_1_1_" style="enable-background:new 0 0 64 64;" version="1.1" viewBox="0 0 64 64" xml:space="preserve" xmlns="http://www.w3.org/2000/svg" xmlns:xlink="http://www.w3.org/1999/xlink"><g><g><rect height="12" style="fill:#FFCB57;" width="14" x="15" y="29"/></g><g><rect height="12" style="fill:#FFCB57;" width="14" x="35" y="29"/></g><g><rect height="6" style="fill:#FFCB57;" width="14" x="25" y="10"/></g><g><path d="M32,59c-2.206,0-4-1.794-4-4s1.794-4,4-4s4,1.794,4,4S34.206,59,32,59z M32,53    c-1.103,0-2,0.897-2,2s0.897,2,2,2s2-0.897,2-2S33.103,53,32,53z" style="fill:#E56565;"/></g><g><rect height="6" style="fill:#E56565;" width="2" x="31" y="46"/></g><g><path d="M1,1v6h62V1H1z M61,5H3V3h58V5z" style="fill:#3F3A34;"/><polygon points="59,61 5,61 5,9 3,9 3,63 61,63 61,9 59,9   " style="fill:#3F3A34;"/><path d="M14,34H7v22h4v-2H9V36h5v6h16V28H14V34z M16,30h12v10H16V30z" style="fill:#3F3A34;"/><path d="M34,28v14h16v-6h5v18h-2v2h4V34h-7v-6H34z M48,40H36V30h12V40z" style="fill:#3F3A34;"/><rect height="2" style="fill:#3F3A34;" width="8" x="38" y="32"/><rect height="2" style="fill:#3F3A34;" width="4" x="38" y="36"/><polygon points="35,24 41,24 41,26 43,26 43,22 35,22   " style="fill:#3F3A34;"/><polygon points="21,26 23,26 23,24 29,24 29,22 21,22   " style="fill:#3F3A34;"/><path d="M24,17h7v7h2v-7h7V9H24V17z M26,11h12v4H26V11z" style="fill:#3F3A34;"/><polygon points="43,44 41,44 41,46 35,46 35,48 43,48   " style="fill:#3F3A34;"/><polygon points="29,46 23,46 23,44 21,44 21,48 29,48   " style="fill:#3F3A34;"/><rect height="2" style="fill:#3F3A34;" width="5" x="38" y="54"/><rect height="2" style="fill:#3F3A34;" width="5" x="21" y="54"/><rect height="2" style="fill:#3F3A34;" width="2" x="44" y="36"/><rect height="2" style="fill:#3F3A34;" width="8" x="18" y="32"/><rect height="2" style="fill:#3F3A34;" width="4" x="22" y="36"/><rect height="2" style="fill:#3F3A34;" width="2" x="18" y="36"/></g><g><path d="M16,58c-1.654,0-3-1.346-3-3s1.346-3,3-3s3,1.346,3,3S17.654,58,16,58z M16,54    c-0.551,0-1,0.449-1,1s0.449,1,1,1s1-0.449,1-1S16.551,54,16,54z" style="fill:#E56565;"/></g><g><path d="M48,58c-1.654,0-3-1.346-3-3s1.346-3,3-3s3,1.346,3,3S49.654,58,48,58z M48,54    c-0.551,0-1,0.449-1,1s0.449,1,1,1s1-0.449,1-1S48.551,54,48,54z" style="fill:#E56565;"/></g></g></svg>