<?xml version="1.0" ?><svg id="Layer_1_1_" style="enable-background:new 0 0 64 64;" version="1.1" viewBox="0 0 64 64" xml:space="preserve" xmlns="http://www.w3.org/2000/svg" xmlns:xlink="http://www.w3.org/1999/xlink"><g><g><path d="M62,31c0-2.344-1.012-4.449-2.619-5.912C59.779,24.137,60,23.095,60,22c0-4.08-3.054-7.446-7-7.938    l-0.072,1.145c-0.347-2.607-2.348-4.69-4.926-5.124l-0.015,0.184C47.989,10.177,48,10.09,48,10c0-4.418-3.582-8-8-8s-8,3.582-8,8    v45c0,3.866,3.134,7,7,7c2.809,0,5.225-1.659,6.34-4.047C45.559,57.974,45.776,58,46,58c3.866,0,7-3.134,7-7v-0.422    c1.564-0.684,2.708-2.143,2.949-3.893L56,46.71c2.891-0.861,5-3.539,5-6.71c0-1.347-0.387-2.601-1.047-3.669    C61.222,34.915,62,33.051,62,31z M44,41l0.104,0.05C43.911,41.293,43.853,41.311,44,41z" style="fill:#FFCB57;"/></g><g><path d="M32,47c-8.271,0-15-6.729-15-15s6.729-15,15-15v2c-7.168,0-13,5.832-13,13s5.832,13,13,13V47z" style="fill:#E56565;"/></g><g><path d="M28.843,51.728c-5.251-0.834-10.041-3.804-13.141-8.146l1.628-1.162    c2.791,3.909,7.101,6.582,11.826,7.333L28.843,51.728z" style="fill:#E56565;"/></g><g><path d="M14.387,41.473C12.825,38.583,12,35.307,12,32c0-9.879,7.083-18.176,16.843-19.728l0.314,1.975    C20.375,15.644,14,23.11,14,32c0,2.977,0.742,5.923,2.146,8.521L14.387,41.473z" style="fill:#E56565;"/></g><g><path d="M63,31c0-2.306-0.891-4.511-2.461-6.175C60.834,23.936,61,22.987,61,22    c0-4.444-3.26-8.215-7.622-8.887c-0.825-1.832-2.417-3.25-4.415-3.829C48.597,4.656,44.721,1,40,1c-2.826,0-5.349,1.312-7,3.356V1    h-7.781l-1.596,6.382c-1.051,0.358-2.091,0.791-3.103,1.291l-5.646-3.388l-9.59,9.589l3.388,5.646    c-0.501,1.015-0.934,2.055-1.291,3.104L1,25.22V38.78l6.382,1.596c0.417,1.223,0.936,2.434,1.545,3.605l1.774-0.922    c-0.646-1.241-1.18-2.527-1.588-3.82l-0.168-0.534L3,37.219V26.781l5.945-1.486l0.168-0.534c0.409-1.293,0.943-2.579,1.588-3.82    l0.258-0.496l-3.157-5.26l7.381-7.382l5.261,3.157l0.497-0.259c1.236-0.644,2.521-1.178,3.819-1.587l0.534-0.169L26.781,3H31v58    h-4.219l-1.486-5.945l-0.534-0.169c-1.297-0.409-2.583-0.943-3.819-1.587l-0.497-0.259l-5.261,3.157l-7.933-7.934l-1.414,1.414    l9.038,9.037l5.646-3.388c1.012,0.5,2.052,0.933,3.103,1.291L25.219,63H33v-2.726C34.467,61.941,36.61,63,39,63    c2.956,0,5.536-1.615,6.921-4.006C45.947,58.995,45.974,59,46,59c4.346,0,7.886-3.485,7.99-7.806    c1.387-0.802,2.421-2.14,2.822-3.732C59.886,46.3,62,43.323,62,40c0-1.236-0.289-2.453-0.842-3.559C62.351,34.877,63,32.971,63,31    z M59.103,36.856C59.689,37.807,60,38.894,60,40c0,2.179-1.215,4.159-3.058,5.208C56.552,42.274,54.04,40,51,40v2    c2.206,0,4,1.794,4,4s-1.794,4-4,4s-4-1.794-4-4h-2c0,3.309,2.691,6,6,6c0.314,0,0.62-0.032,0.922-0.078    c-0.408,2.627-2.521,4.693-5.172,5.026C46.907,56.323,47,55.673,47,55c0-4.411-3.589-8-8-8v2c3.309,0,6,2.691,6,6s-2.691,6-6,6    s-6-2.691-6-6V10c0-3.859,3.14-7,7-7s7,3.141,7,7s-3.14,7-7,7v2c4.493,0,8.216-3.312,8.883-7.621C50.735,12.128,52,13.923,52,16    c0,2.757-2.243,5-5,5v2c3.86,0,7-3.141,7-7c0-0.242-0.015-0.48-0.039-0.716C56.897,16.139,59,18.852,59,22c0,3.859-3.14,7-7,7v2    c3.196,0,6.001-1.679,7.598-4.197C60.499,28.004,61,29.474,61,31c0,1.718-0.636,3.374-1.792,4.664l-0.499,0.557L59.103,36.856z" style="fill:#3F3A34;"/><rect height="2" style="fill:#3F3A34;" width="2" x="37" y="54"/><rect height="2" style="fill:#3F3A34;" width="2" x="42" y="31"/><rect height="2" style="fill:#3F3A34;" width="2" x="36" y="9"/><rect height="2" style="fill:#3F3A34;" width="2" x="53" y="24"/><rect height="2" style="fill:#3F3A34;" width="2" x="35" y="38"/><rect height="2" style="fill:#3F3A34;" width="2" x="54" y="36"/></g></g></svg>