<?xml version="1.0" ?><svg id="Layer_1_1_" style="enable-background:new 0 0 64 64;" version="1.1" viewBox="0 0 64 64" xml:space="preserve" xmlns="http://www.w3.org/2000/svg" xmlns:xlink="http://www.w3.org/1999/xlink"><g><g><path d="M56,63H33v-8h2v6h21c1.654,0,3-1.346,3-3V37h2v21C61,60.757,58.757,63,56,63z" style="fill:#e69632;"/></g><g><path d="M60,35c-1.654,0-3-1.346-3-3s1.346-3,3-3s3,1.346,3,3S61.654,35,60,35z M60,31    c-0.552,0-1,0.449-1,1s0.448,1,1,1s1-0.449,1-1S60.552,31,60,31z" style="fill:#e69632;"/></g><g><path d="M52,59H37v-4h2v2h13c0.552,0,1-0.449,1-1V45h2v11C55,57.654,53.654,59,52,59z" style="fill:#e69632;"/></g><g><path d="M55,21c0-3.181-2.123-5.862-5.029-6.714C49.977,14.19,50,14.098,50,14c0-2.419-1.718-4.437-4-4.9    l-0.007,0.04C45.994,9.093,46,9.047,46,9c0-3.866-3.134-7-7-7s-7,3.134-7,7c0-3.866-3.134-7-7-7s-7,3.134-7,7l0.232,0.077    C15.838,9.449,14,11.502,14,14c0,0.114,0.026,0.221,0.034,0.333L14,14.29C11.109,15.15,9,17.829,9,21    c0,2.5,1.315,4.689,3.287,5.927L12.29,27C12.101,27.634,12,28.305,12,29c0,3.527,2.608,6.444,6.001,6.929l0.09,0.001    C18.036,36.28,18,36.635,18,37c0,3.866,3.134,7,7,7s7-3.134,7-7c0,3.866,3.134,7,7,7s7-3.134,7-7c0-0.365-0.036-0.72-0.09-1.07    l0.09-0.001C49.392,35.444,52,32.527,52,29c0-0.695-0.101-1.366-0.29-1.999l-0.008-0.068C53.68,25.696,55,23.505,55,21z" style="fill:#fddd3a;"/></g><g><path d="M54,43c-1.654,0-3-1.346-3-3s1.346-3,3-3s3,1.346,3,3S55.654,43,54,43z M54,39    c-0.552,0-1,0.449-1,1s0.448,1,1,1s1-0.449,1-1S54.552,39,54,39z" style="fill:#e69632;"/></g><g><path d="M31,63H8c-2.757,0-5-2.243-5-5V37h2v21c0,1.654,1.346,3,3,3h21v-6h2V63z" style="fill:#e69632;"/></g><g><path d="M4,35c-1.654,0-3-1.346-3-3s1.346-3,3-3s3,1.346,3,3S5.654,35,4,35z M4,31c-0.552,0-1,0.449-1,1    s0.448,1,1,1s1-0.449,1-1S4.552,31,4,31z" style="fill:#e69632;"/></g><g><path d="M27,59H12c-1.654,0-3-1.346-3-3V45h2v11c0,0.551,0.448,1,1,1h13v-2h2V59z" style="fill:#e69632;"/></g><g><path d="M10,43c-1.654,0-3-1.346-3-3s1.346-3,3-3s3,1.346,3,3S11.654,43,10,43z M10,39    c-0.552,0-1,0.449-1,1s0.448,1,1,1s1-0.449,1-1S10.552,39,10,39z" style="fill:#e69632;"/></g><g><rect height="2" style="fill:#5e2e70;" width="14" x="25" y="51"/><path d="M56,21c0-3.265-2.027-6.213-5.015-7.418c-0.168-2.397-1.773-4.455-4.019-5.237    C46.631,4.24,43.19,1,39,1c-3.008,0-5.634,1.669-7,4.13C30.634,2.669,28.008,1,25,1c-4.188,0-7.628,3.236-7.966,7.338    c-2.224,0.775-3.852,2.82-4.013,5.265C10.038,14.81,8,17.738,8,21c0,2.603,1.255,4.913,3.186,6.374C11.076,27.909,11,28.45,11,29    c0,3.664,2.532,6.851,6.013,7.745C17.01,36.831,17,36.914,17,37c0,3.719,2.555,6.845,6,7.737V49h18v-4.263    c3.445-0.892,6-4.017,6-7.737c0-0.086-0.01-0.169-0.013-0.255C50.468,35.851,53,32.664,53,29c0-0.55-0.076-1.091-0.187-1.625    C54.745,25.913,56,23.603,56,21z M39,47H25v-2c3.008,0,5.634-1.669,7-4.13c1.366,2.461,3.992,4.13,7,4.13V47z M51,29    c0,2.683-1.815,5.011-4.329,5.745C45.694,31.429,42.628,29,39,29v2c3.309,0,6,2.691,6,6s-2.691,6-6,6s-6-2.691-6-6h-2    c0,3.309-2.691,6-6,6s-6-2.691-6-6s2.691-6,6-6v-2c-3.628,0-6.694,2.429-7.671,5.745C14.815,34.011,13,31.683,13,29    c0-0.193,0.023-0.383,0.041-0.574C13.958,28.793,14.954,29,16,29c2.831,0,5.395-1.449,6.856-3.877l-1.713-1.032    C20.046,25.913,18.123,27,16,27c-3.309,0-6-2.691-6-6c0-2.253,1.294-4.301,3.244-5.318C13.974,18.173,16.276,20,19,20v-2    c-2.206,0-4-1.794-4-4s1.794-4,4-4s4,1.794,4,4h2c0-3.278-2.643-5.946-5.91-5.995C19.566,5.169,22.031,3,25,3c3.309,0,6,2.691,6,6    h2c0-3.309,2.691-6,6-6s6,2.691,6,6s-2.691,6-6,6v2c3.907,0,7.164-2.818,7.858-6.527c1.282,0.68,2.141,2.024,2.137,3.55    c-0.01,0.067-0.019,0.134-0.022,0.203l-0.049,0.796l0.766,0.224C52.228,15.99,54,18.356,54,21c0,3.309-2.691,6-6,6    c-1.626,0-3.148-0.64-4.286-1.802l-1.43,1.399C43.802,28.146,45.832,29,48,29c1.046,0,2.042-0.207,2.959-0.574    C50.977,28.617,51,28.807,51,29z" style="fill:#5e2e70;"/><rect height="2" style="fill:#5e2e70;" width="2" x="47" y="18"/><rect height="2" style="fill:#5e2e70;" width="2" x="27" y="27"/><rect height="2" style="fill:#5e2e70;" width="2" x="35" y="35"/><rect height="2" style="fill:#5e2e70;" width="2" x="23" y="39"/><rect height="2" style="fill:#5e2e70;" width="2" x="37" y="8"/><rect height="2" style="fill:#5e2e70;" width="2" x="23" y="5"/><rect height="2" style="fill:#5e2e70;" width="2" x="25" y="16"/><rect height="2" style="fill:#5e2e70;" width="2" x="14" y="22"/><rect height="2" style="fill:#5e2e70;" width="2" x="33" y="22"/></g></g></svg>