<?xml version="1.0" ?><svg id="Layer_1_1_" style="enable-background:new 0 0 64 64;" version="1.1" viewBox="0 0 64 64" xml:space="preserve" xmlns="http://www.w3.org/2000/svg" xmlns:xlink="http://www.w3.org/1999/xlink"><g><g><path d="M53,11H11V1h42V11z M13,9h38V3H13V9z" style="fill:#e69632;"/></g><g><rect height="2" style="fill:#e69632;" width="2" x="15" y="5"/></g><g><rect height="2" style="fill:#e69632;" width="2" x="19" y="5"/></g><g><rect height="2" style="fill:#e69632;" width="2" x="23" y="5"/></g><g><path d="M48,25c0-3.314-2.686-6-6-6c-0.033,0-0.064,0.006-0.096,0.006l0.013-0.007    C41.44,16.162,38.973,14,36,14c-1.777,0-3.373,0.772-4.472,2l-0.077,0.097C30.474,15.408,29.286,15,28,15    c-2.612,0-4.835,1.67-5.659,4l0.053,0.025C22.263,19.016,22.133,19,22,19c-3.314,0-6,2.686-6,6c0,2.611,1.668,4.833,3.997,5.658    l0.022-0.012c-0.019,0.277-0.023,0.558,0.004,0.845c0.248,2.6,2.58,4.509,5.191,4.509h2.664c1.358,0,2.661,0.54,3.621,1.5    s1.5,2.263,1.5,3.621V43h7v-3.259c0-0.922,0.637-1.703,1.529-1.938c2.963-0.778,5.031-3.765,4.337-7.095    c-0.065-0.314-0.163-0.617-0.278-0.913C47.048,28.702,48,26.966,48,25z M37.086,21.569c-0.027,0.039-0.06,0.074-0.086,0.114    l-0.09-0.02L37.086,21.569z M27.261,21.355L27,21.683c-0.174-0.261-0.374-0.502-0.586-0.733L27.261,21.355z" style="fill:#fddd3a;"/></g><g><path d="M1,52c0,2.757,2.243,5,5,5h12v4h-4v2h36v-2h-4v-4h12c2.757,0,5-2.243,5-5v-3H1V52z M44,61H20v-4h24    V61z M3,51h58v1c0,1.654-1.346,3-3,3H6c-1.654,0-3-1.346-3-3V51z" style="fill:#5e2e70;"/><path d="M3,16c0-1.654,1.346-3,3-3h3v-2H6c-2.757,0-5,2.243-5,5v31h2V16z" style="fill:#5e2e70;"/><path d="M58,11h-3v2h3c1.654,0,3,1.346,3,3v31h2V16C63,13.243,60.757,11,58,11z" style="fill:#5e2e70;"/><polygon points="53,13 51,13 51,45 13,45 13,13 11,13 11,47 53,47   " style="fill:#5e2e70;"/><path d="M19.016,31.311c0.005,0.092,0.003,0.183,0.012,0.275C19.317,34.622,22.035,37,25.215,37h2.664    c1.084,0,2.146,0.44,2.914,1.207C31.571,38.985,32,40.02,32,41.121V43h2v-1.879c0-1.636-0.637-3.173-1.793-4.328    C31.05,35.637,29.513,35,27.879,35h-2.664c-2.16,0-4.003-1.583-4.196-3.604c-0.109-1.146,0.253-2.242,1.021-3.086    C22.796,27.478,23.875,27,25,27v-2c-1.687,0-3.305,0.716-4.44,1.965c-0.585,0.643-1.013,1.403-1.272,2.219    C17.891,28.276,17,26.716,17,25c0-2.757,2.243-5,5-5c1.679,0,3.237,0.836,4.167,2.236l1.666-1.107    c-0.953-1.433-2.378-2.438-3.994-2.877C24.751,16.875,26.299,16,28,16c2.757,0,5,2.243,5,5h2c0-1.931-0.786-3.682-2.056-4.95    C33.814,15.378,34.886,15,36,15c2.089,0,3.893,1.278,4.635,3.147c-1.81,0.359-3.424,1.41-4.469,2.982l1.666,1.107    C38.763,20.836,40.321,20,42,20c2.757,0,5,2.243,5,5c0,1.177-0.419,2.29-1.147,3.174c-0.994-1.513-2.553-2.641-4.358-3.018    c-2.112-0.442-4.264,0.073-5.908,1.409C33.943,27.902,33,29.883,33,32h2c0-1.512,0.674-2.927,1.849-3.882    c1.174-0.956,2.719-1.32,4.238-1.005c1.88,0.393,3.407,1.919,3.799,3.8c0.551,2.645-1.035,5.246-3.611,5.924    C39.936,37.188,39,38.383,39,39.741V43h2v-3.259c0-0.457,0.314-0.848,0.783-0.971c3.607-0.947,5.83-4.578,5.062-8.266    c-0.026-0.125-0.073-0.243-0.106-0.366C48.165,28.824,49,26.976,49,25c0-3.618-2.759-6.604-6.284-6.964    C41.858,15.076,39.155,13,36,13c-1.748,0-3.429,0.658-4.711,1.825C30.308,14.3,29.188,14,28,14c-2.721,0-5.165,1.593-6.312,4.016    C17.973,18.181,15,21.246,15,25C15,27.721,16.594,30.164,19.016,31.311z" style="fill:#5e2e70;"/></g></g></svg>