<?xml version="1.0" ?>
  <svg id="Layer_1_1_" style="enable-background:new 0 0 64 64;" version="1.1" viewBox="0 0 64 64" xml:space="preserve" xmlns="http://www.w3.org/2000/svg" xmlns:xlink="http://www.w3.org/1999/xlink">
  <g><g><path d="M32.394,28c1.298,0,2.541,0.384,3.606,1.06V12c0-0.553-0.447-1-1-1h-6c-0.553,0-1,0.447-1,1v16.986    C29.335,28.358,30.821,28,32.394,28z" style="fill:#e69632;"/></g>
  <g>
  <path d="M39.48,31.633l0.019,0c1.826-2.13,4.503-3.499,7.501-3.612V17c0-0.553-0.447-1-1-1h-6    c-0.553,0-1,0.447-1,1v14.382C39.162,31.462,39.327,31.539,39.48,31.633z" style="fill:#e69632;"/></g>
  <g><path d="M17.394,28c2.253,0,4.356,1.126,5.606,3c0.35,0.087,0.684,0.209,1,0.36l0.746,0.013    c0.081-0.088,0.171-0.166,0.254-0.25V17c0-0.553-0.447-1-1-1h-6c-0.553,0-1,0.447-1,1v11.02C17.132,28.015,17.261,28,17.394,28z" style="fill:#e69632;"/></g>
  <g><path d="M53,31c2.351,0.588,4,2.7,4,5.123V37h1V12c0-0.553-0.447-1-1-1h-6c-0.553,0-1,0.447-1,1v16.534    C51.203,29.039,52.255,29.883,53,31z" style="fill:#e69632;"/></g><g><path d="M7.1,37c0.529-3.93,3.252-7.16,6.9-8.422V12c0-0.553-0.447-1-1-1H7c-0.553,0-1,0.447-1,1v25H7.1z" style="fill:#e69632;"/></g>
  <g><path style="fill:#9676a1;" d="M10,7c0.768,0,1.461-0.298,1.992-0.774l6.055,3.303C18.023,9.683,18,9.839,18,10c0,1.654,1.346,3,3,3s3-1.346,3-3    c0-0.161-0.023-0.317-0.048-0.471l6.055-3.303C30.539,6.702,31.232,7,32,7c0.794,0,1.512-0.315,2.049-0.82l5.991,3.424    C40.023,9.734,40,9.864,40,10c0,1.654,1.346,3,3,3s3-1.346,3-3c0-0.136-0.023-0.266-0.04-0.397l5.991-3.424    C52.488,6.685,53.206,7,54,7c1.654,0,3-1.346,3-3s-1.346-3-3-3s-3,1.346-3,3c0,0.136,0.023,0.266,0.04,0.397L45.049,7.82    C44.512,7.315,43.794,7,43,7s-1.512,0.315-2.049,0.82L34.96,4.397C34.977,4.266,35,4.136,35,4c0-1.654-1.346-3-3-3s-3,1.346-3,3    c0,0.161,0.023,0.317,0.048,0.471l-6.055,3.303C22.461,7.298,21.768,7,21,7s-1.461,0.298-1.992,0.774l-6.055-3.303    C12.977,4.317,13,4.161,13,4c0-1.654-1.346-3-3-3S7,2.346,7,4S8.346,7,10,7z M54,3c0.551,0,1,0.449,1,1s-0.449,1-1,1s-1-0.449-1-1    S53.449,3,54,3z M43,9c0.551,0,1,0.449,1,1s-0.449,1-1,1s-1-0.449-1-1S42.449,9,43,9z M32,3c0.551,0,1,0.449,1,1s-0.449,1-1,1    s-1-0.449-1-1S31.449,3,32,3z M21,9c0.551,0,1,0.449,1,1s-0.449,1-1,1s-1-0.449-1-1S20.449,9,21,9z M10,3c0.551,0,1,0.449,1,1    s-0.449,1-1,1S9,4.551,9,4S9.449,3,10,3z"/>
  <path style="fill:#9676a1;" d="M62.961,61.725l-0.995-3.482c-0.723-2.531-2.776-4.424-5.357-4.94L51,52.18V52c0-0.026-0.013-0.048-0.015-0.073    c1.858-1.073,3.242-2.869,3.771-5.003C56.601,46.568,58,44.947,58,43v-6.877c0-2.758-1.785-5.167-4.386-5.988    C52.158,28.165,49.86,27,47.395,27c-3.065,0-5.97,1.241-8.106,3.409c-0.221-0.099-0.44-0.2-0.675-0.274    C37.158,28.165,34.86,27,32.395,27c-3.17,0-6.04,1.304-8.107,3.4c-0.22-0.099-0.443-0.193-0.673-0.266    C22.158,28.165,19.86,27,17.395,27C11.111,27,6,32.111,6,38.395V43c0,1.947,1.399,3.568,3.244,3.924    c0.53,2.134,1.913,3.93,3.771,5.003C13.013,51.952,13,51.974,13,52v0.18l-5.608,1.122c-2.582,0.516-4.635,2.409-5.358,4.94    l-0.995,3.482c-0.086,0.302-0.026,0.626,0.163,0.877S1.686,63,2,63h15h30h15c0.314,0,0.609-0.147,0.798-0.398    S63.048,62.027,62.961,61.725z M47,51c-2.796,0-5.201-1.973-5.823-4.653C42.272,45.633,43,44.402,43,43v-2.58    c1.054-0.413,2.029-1.035,2.828-1.834l0.266-0.266L46.2,38.4c1.969,1.477,4.352,2.369,6.8,2.561V45C53,48.309,50.309,51,47,51z     M43,52.18l-3.5,0.7l-3.5-0.7V52c0-0.026-0.013-0.048-0.015-0.073c1.609-0.93,2.862-2.401,3.513-4.166    c0.655,1.769,1.916,3.234,3.517,4.161C43.014,51.949,43,51.972,43,52V52.18z M24.501,52.88L21,52.18V52    c0-0.028-0.014-0.051-0.016-0.078c1.601-0.927,2.862-2.392,3.517-4.161c0.652,1.764,1.904,3.236,3.513,4.166    C28.013,51.952,28,51.974,28,52v0.18L24.501,52.88z M24,44.722c-0.595-0.347-1-0.985-1-1.722s0.405-1.375,1-1.722V44.722z M26,45    v-4.06c1.823-0.219,3.51-1.036,4.828-2.354l0.266-0.266L31.2,38.4c1.969,1.477,4.352,2.369,6.8,2.561V45c0,3.309-2.691,6-6,6    S26,48.309,26,45z M41,43c0,0.737-0.405,1.375-1,1.722v-3.444C40.595,41.625,41,42.263,41,43z M55,44.722v-3.444    c0.595,0.347,1,0.985,1,1.722S55.595,44.375,55,44.722z M47.395,29c1.922,0,3.707,0.955,4.773,2.555    c0.138,0.207,0.348,0.355,0.589,0.416C54.667,32.448,56,34.155,56,36.123v3.433C55.409,39.212,54.732,39,54,39    c-2.364,0-4.708-0.781-6.6-2.2l-0.8-0.6c-0.398-0.299-0.955-0.259-1.307,0.093l-0.879,0.879c-0.416,0.416-0.898,0.764-1.414,1.047    v-2.096c0-1.797-0.767-3.437-2.015-4.595C42.717,29.911,45,29,47.395,29z M32.395,29c1.922,0,3.707,0.955,4.773,2.555    c0.138,0.207,0.348,0.355,0.589,0.416C39.667,32.448,41,34.155,41,36.123v3.433C40.409,39.212,39.732,39,39,39    c-2.364,0-4.708-0.781-6.6-2.2l-0.8-0.6c-0.398-0.299-0.956-0.259-1.307,0.093l-0.879,0.879C28.235,38.351,26.667,39,25,39    c-0.732,0-1.409,0.212-2,0.556v-1.162C23,33.214,27.214,29,32.395,29z M17.395,29c1.922,0,3.707,0.955,4.773,2.555    c0.138,0.207,0.348,0.355,0.59,0.416c0.064,0.016,0.122,0.048,0.185,0.067C21.717,33.854,21,36.042,21,38.395v0.181    c-1.295-0.369-2.523-0.968-3.6-1.776l-0.8-0.6c-0.398-0.299-0.956-0.259-1.307,0.093l-0.879,0.879C13.235,38.351,11.667,39,10,39    c-0.732,0-1.409,0.212-2,0.556v-1.162C8,33.214,12.214,29,17.395,29z M8,43c0-0.737,0.405-1.375,1-1.722v3.444    C8.405,44.375,8,43.737,8,43z M11,45v-4.06c1.823-0.219,3.51-1.036,4.828-2.354l0.266-0.266L16.2,38.4    c1.422,1.067,3.071,1.813,4.8,2.225V43c0,1.402,0.728,2.633,1.823,3.347C22.201,49.027,19.796,51,17,51C13.691,51,11,48.309,11,45    z M3.957,58.792c0.517-1.808,1.983-3.161,3.827-3.529l6.413-1.283C14.664,53.887,15,53.477,15,53v-0.263    C15.641,52.903,16.308,53,17,53c0.688,0,1.357-0.094,2-0.262V53c0,0.477,0.336,0.887,0.804,0.98l0.517,0.103    c-1.575,0.888-2.772,2.356-3.287,4.159L16.246,61H3.326L3.957,58.792z M40.781,61l-0.811-3.243    c-0.134-0.536-0.679-0.862-1.213-0.728c-0.536,0.134-0.861,0.677-0.728,1.213L38.719,61H25.281l0.689-2.757    c0.134-0.536-0.192-1.079-0.728-1.213c-0.533-0.134-1.079,0.192-1.213,0.728L23.219,61h-4.893l0.631-2.208    c0.517-1.808,1.983-3.161,3.827-3.529l6.413-1.283C29.664,53.887,30,53.477,30,53v-0.263C30.641,52.903,31.308,53,32,53    s1.359-0.097,2-0.263V53c0,0.477,0.336,0.887,0.804,0.98l6.413,1.283c1.844,0.369,3.31,1.721,3.827,3.529L45.674,61H40.781z     M47.754,61l-0.788-2.757c-0.515-1.803-1.712-3.27-3.287-4.159l0.517-0.103C44.664,53.887,45,53.477,45,53v-0.262    C45.643,52.906,46.312,53,47,53c0.692,0,1.359-0.097,2-0.263V53c0,0.477,0.336,0.887,0.804,0.98l6.413,1.283    c1.844,0.369,3.31,1.721,3.827,3.529L60.674,61H47.754z"/></g>
  </g></svg>