<svg width="652" height="830" viewBox="0 0 652 830" fill="none" xmlns="http://www.w3.org/2000/svg">
<mask id="mask0_3_10" style="mask-type:alpha" maskUnits="userSpaceOnUse" x="0" y="0" width="652" height="830">
<rect width="652" height="830" fill="#D9D9D9"/>
</mask>
<g mask="url(#mask0_3_10)">
<path d="M642.33 -339L582.022 -304.433C545.364 -283.222 523.684 -243.942 525.655 -201.912L541.028 106.438L223.719 -98.9979L104.284 -30.6504L516.983 233.313L663.616 149.253L642.33 -339Z" fill="#E0492B"/>
<path d="M977.771 542.052L640.753 370.397L964.764 205.028L977.377 198.35V60.4766L617.497 246.665C570.985 270.626 542.21 318.155 542.21 370.397V454.457L977.771 679.533V542.052Z" fill="#E0492B"/>
<path d="M38.4581 418.33C16.7786 433.257 4.55927 458.003 6.13597 484.321C7.71266 510.639 22.6912 533.814 45.9474 545.991L58.561 552.669L368.775 336.628L363.257 713.718L485.45 778.137L489.786 289.491L340.395 210.538L38.4581 418.33Z" fill="#E0492B"/>
</g>
</svg>
