<svg width="675" height="787" viewBox="0 0 675 787" fill="none" xmlns="http://www.w3.org/2000/svg">
<mask id="mask0_4_187" style="mask-type:alpha" maskUnits="userSpaceOnUse" x="0" y="0" width="675" height="787">
<rect width="675" height="787" fill="#D9D9D9"/>
</mask>
<g mask="url(#mask0_4_187)">
<mask id="path-2-inside-1_4_187" fill="white">
<path d="M637.33 6L577.022 40.5666C540.364 61.7779 518.684 101.058 520.655 143.088L536.028 451.438L218.719 246.002L99.2842 314.35L511.983 578.313L658.616 494.253L637.33 6Z"/>
</mask>
<path d="M637.33 6L638.329 5.95645L638.258 4.31576L636.833 5.13241L637.33 6ZM577.022 40.5666L576.525 39.699L576.521 39.701L577.022 40.5666ZM520.655 143.088L519.656 143.135L519.656 143.138L520.655 143.088ZM536.028 451.438L535.484 452.277L537.124 453.338L537.027 451.388L536.028 451.438ZM218.719 246.002L219.262 245.163L218.751 244.832L218.222 245.134L218.719 246.002ZM99.2842 314.35L98.7875 313.482L97.3539 314.302L98.7454 315.192L99.2842 314.35ZM511.983 578.313L511.444 579.155L511.955 579.482L512.481 579.18L511.983 578.313ZM658.616 494.253L659.113 495.121L659.641 494.818L659.615 494.209L658.616 494.253ZM636.833 5.13241L576.525 39.699L577.519 41.4342L637.828 6.86759L636.833 5.13241ZM576.521 39.701C539.544 61.0968 517.668 100.726 519.656 143.135L521.654 143.041C519.701 101.39 541.183 62.459 577.523 41.4321L576.521 39.701ZM519.656 143.138L535.029 451.487L537.027 451.388L521.654 143.038L519.656 143.138ZM536.571 450.598L219.262 245.163L218.175 246.841L535.484 452.277L536.571 450.598ZM218.222 245.134L98.7875 313.482L99.7809 315.218L219.215 246.87L218.222 245.134ZM98.7454 315.192L511.444 579.155L512.522 577.47L99.823 313.507L98.7454 315.192ZM512.481 579.18L659.113 495.121L658.118 493.385L511.486 577.445L512.481 579.18ZM659.615 494.209L638.329 5.95645L636.331 6.04355L657.617 494.297L659.615 494.209Z" fill="#E0492B" mask="url(#path-2-inside-1_4_187)"/>
<path d="M972.271 1023.71L537.71 799.153V715.397C537.71 663.341 566.381 615.984 612.726 592.109L612.727 592.109L971.877 406.298V543.049L959.536 549.582L959.53 549.586L635.526 714.952L634.653 715.398L635.527 715.843L972.271 887.358V1023.71Z" stroke="#E0492B"/>
<path d="M41.1814 890.549L41.1794 890.548C18.079 878.452 3.20131 855.434 1.63507 829.291C0.0689594 803.15 12.205 778.57 33.7417 763.742L335.429 556.121L484.284 634.791L479.958 1122.31L358.761 1058.42L364.275 681.634L364.289 680.66L363.489 681.217L53.5254 897.084L41.1814 890.549Z" stroke="#E0492B"/>
</g>
</svg>
