<svg role="img" aria-label="logo miosotisstudio" xmlns="http://www.w3.org/2000/svg" viewBox="0 0 315.7 35.38"><defs><style>.cls-1{fill:#fff;}</style></defs><title>Ativo 1</title><g id="Camada_2" data-name="Camada 2"><g id="Camada_1-2" data-name="Camada 1"><path class="cls-1" d="M35.42,34.75H30.23v-15c0-3.9-1.68-6-4.8-6-2.93,0-5.1,2.16-5.1,6v15H15.09V19.23c0-3.42-1.82-5.48-4.8-5.48s-5,2.3-5,5.91V34.75H0V9.66H5.14v3.27A7.48,7.48,0,0,1,11.92,9c3.51,0,6,1.63,7.21,4.18A8.51,8.51,0,0,1,26.87,9c5.67,0,8.55,3.89,8.55,9.32Z"/><path class="cls-1" d="M43.69.19A3.24,3.24,0,0,1,47,3.46a3.27,3.27,0,0,1-6.54,0A3.25,3.25,0,0,1,43.69.19ZM41.1,9.66h5.24V34.75H41.1Z"/><path class="cls-1" d="M63.93,9c7.74,0,13.31,5.62,13.31,13.17A12.9,12.9,0,0,1,63.93,35.38c-7.69,0-13.27-5.53-13.27-13.13A12.92,12.92,0,0,1,63.93,9Zm0,21.67c4.66,0,8.07-3.6,8.07-8.5s-3.41-8.51-8.07-8.51-8,3.65-8,8.55S59.27,30.71,63.93,30.71Z"/><path class="cls-1" d="M83.06,27.78a6.84,6.84,0,0,0,6,3.27c2.21,0,3.84-1.1,3.84-3.12,0-4.81-12.21-3.08-12.21-11.78C80.7,11.73,84.45,9,89.31,9a8.78,8.78,0,0,1,8.17,4.66l-3.61,2.4A5.41,5.41,0,0,0,89,13.31c-1.92,0-3.36,1-3.36,2.74,0,4.81,12.25,2.79,12.25,11.64,0,4.66-3.94,7.69-9.08,7.69a9.77,9.77,0,0,1-9-5Z"/><path class="cls-1" d="M113.77,9c7.74,0,13.32,5.62,13.32,13.17a12.9,12.9,0,0,1-13.32,13.17c-7.69,0-13.26-5.53-13.26-13.13A12.92,12.92,0,0,1,113.77,9Zm0,21.67c4.67,0,8.08-3.6,8.08-8.5s-3.41-8.51-8.08-8.51-8,3.65-8,8.55S109.11,30.71,113.77,30.71Z"/><path class="cls-1" d="M131.85,4.42H137V9.66h5.09V14H137V25.67c0,3.89,1.49,4.76,4.28,4.76.43,0,1-.05,1-.05V34.9a13.94,13.94,0,0,1-2.55.19c-6.11,0-7.93-4.09-7.93-10.24V14h-2.79V9.66h2.79Z"/><path class="cls-1" d="M149.1.19a3.24,3.24,0,0,1,3.27,3.27,3.27,3.27,0,0,1-6.54,0A3.25,3.25,0,0,1,149.1.19Zm-2.59,9.47h5.24V34.75h-5.24Z"/><path class="cls-1" d="M159.1,27.78a6.85,6.85,0,0,0,6,3.27c2.21,0,3.84-1.1,3.84-3.12,0-4.81-12.2-3.08-12.2-11.78,0-4.42,3.75-7.11,8.6-7.11a8.78,8.78,0,0,1,8.17,4.66l-3.6,2.4a5.42,5.42,0,0,0-4.86-2.79c-1.92,0-3.36,1-3.36,2.74,0,4.81,12.25,2.79,12.25,11.64,0,4.66-3.94,7.69-9.08,7.69a9.77,9.77,0,0,1-9-5Z"/><path class="cls-1" d="M192.94,28.84c1,2.69,2.11,4.37,5.81,4.37,3.13,0,6.3-2.06,6.3-5.48,0-6-10.91-4.56-10.91-11.39,0-4.52,3.85-7.16,8.51-7.16s6.1,2.93,6.53,5l-2,.77c-.38-1.54-1.39-3.6-5-3.6-3,0-5.68,1.77-5.68,4.75,0,5.44,10.91,4.23,10.91,11.3,0,4.71-3.89,8-8.89,8s-7.16-3.22-7.74-5.72Z"/><path class="cls-1" d="M216.78,4.61h2.4l-.86,5.2h5.86L223.85,12H218l-2.4,14.42c-.92,5.43.29,6.44,3.89,6.44.53,0,1.11,0,1.11,0l-.34,2.16a12.88,12.88,0,0,1-1.92.1c-3.94,0-6.15-2.45-5.29-7.5L215.58,12H212.5l.34-2.16h3.08Z"/><path class="cls-1" d="M226.11,26,228.8,9.81h2.45l-2.69,16c-.77,4.57,1.63,7.36,5.52,7.36,4.38,0,8.08-3.27,8.9-8.13l2.54-15.23h2.41l-4.18,24.94h-2.41l.67-3.94a10.3,10.3,0,0,1-8.55,4.57C228.32,35.38,225.14,31.82,226.11,26Z"/><path class="cls-1" d="M272.73,34.75h-2.4l.76-4.61a13.12,13.12,0,0,1-10.18,5.24c-6.25,0-10.2-4.52-10.2-10.87,0-8.65,6.4-15.33,14.38-15.33a8.85,8.85,0,0,1,8.6,5.38L276.14,0h2.41Zm-8-23.31c-6.15,0-11.49,5.53-11.49,12.78,0,5.39,3.27,8.9,7.93,8.9,6.64,0,11.49-6.25,11.49-13.08C272.68,14.42,269.32,11.44,264.75,11.44Z"/><path class="cls-1" d="M284.12,9.81h2.4l-4.18,24.94h-2.4Zm2.65-8.61a1.64,1.64,0,0,1,1.68,1.68,2.35,2.35,0,0,1-2.36,2.26,1.64,1.64,0,0,1-1.68-1.68A2.34,2.34,0,0,1,286.77,1.2Z"/><path class="cls-1" d="M304.79,9.18c6.54,0,10.91,4.76,10.91,11.1a15.23,15.23,0,0,1-15.14,15.1c-6.54,0-10.91-4.62-10.91-11.06A15.14,15.14,0,0,1,304.79,9.18Zm-3.94,23.94a12.39,12.39,0,0,0,12.3-12.6c0-5.14-3.31-9.08-8.7-9.08A12.41,12.41,0,0,0,292.2,24C292.2,29.27,295.51,33.12,300.85,33.12Z"/><path class="cls-1" d="M184.86,19.92a1.64,1.64,0,0,1,1.69,1.68,2.34,2.34,0,0,1-2.36,2.26,1.64,1.64,0,0,1-1.68-1.68A2.34,2.34,0,0,1,184.86,19.92Z"/></g></g></svg>