<?xml version="1.0" encoding="utf-8"?>
<!-- Generator: Adobe Illustrator 23.0.1, SVG Export Plug-In . SVG Version: 6.00 Build 0)  -->
<svg version="1.1" id="Calque_1" xmlns="http://www.w3.org/2000/svg" xmlns:xlink="http://www.w3.org/1999/xlink" x="0px" y="0px"
	 viewBox="0 0 566.93 566.93" style="enable-background:new 0 0 566.93 566.93;" xml:space="preserve">
<style type="text/css">
	.st0{fill:#111111;}
	.st1{fill:#111111;}
</style>
<g>
	<path class="st0" d="M425.2,448.43l-83.98-40.25l36.82-18.62l-43.28-13.82l21.32-5.41l-67.8-72.5l-2.75-7.35l-2.06,2.2l-2.06-2.2
		l-2.75,7.35l-67.8,72.5l21.32,5.41l-43.28,13.82l36.82,18.62l-83.98,40.25l126.3-38.14l-36.18-17.42l51.61-17.71l51.61,17.71
		l-36.18,17.42L425.2,448.43z M283.46,370.22l-35.14-7.69l35.14-18.1l35.14,18.1L283.46,370.22z"/>
	<path class="st1" d="M354.08,329.31c-0.07-1.31-0.06-2.11-0.16-2.89c-0.61-5.07-1.29-10.14-1.85-15.22
		c-0.58-5.28-1.02-10.57-1.59-15.84c-0.77-7.08-1.63-14.15-2.43-21.22c-0.56-5.01-1.06-10.03-1.63-15.05
		c-0.6-5.34-1.37-10.67-1.85-16.03c-0.52-5.78-2.06-11.15-5.29-16.02c-3.35-5.04-8.26-8.25-13.17-11.49
		c-2.32-1.53-4.66-3.06-7.09-4.64c-0.19-5.08-0.65-10.14-1.5-15.19c-2.67-15.7-7.92-30.6-14.79-44.93
		c-5.37-11.21-11.68-21.87-19.12-32.28c-0.5,0.57-0.8,0.84-1.03,1.16c-11.08,15.8-20.08,32.7-26.5,50.91
		c-4.51,12.77-7.59,25.9-8.08,39.47c-0.01,0.29-0.01,0.57-0.02,0.86c-3.64,2.42-7.05,4.71-10.5,6.92
		c-9.48,6.08-14.41,14.69-15.04,25.94c-0.27,4.87-1.02,9.71-1.57,14.57c-0.62,5.43-1.27,10.85-1.88,16.28
		c-0.57,5.1-1.07,10.21-1.64,15.31c-0.6,5.35-1.25,10.68-1.88,16.03c-0.46,3.94-0.94,7.88-1.38,11.82
		c-0.4,3.61-0.77,7.22-1.23,11.61c17.99-11.99,35.4-23.6,52.71-35.14c2.03,2.96,4.39,5.7,7.27,8.13c5.46,4.6,13.51,5.79,19.3,1.28
		c3.44-2.67,6.6-5.96,9.15-9.52C318.76,305.77,336.22,317.41,354.08,329.31z"/>
</g>
</svg>
