<?xml version="1.0" encoding="utf-8"?>
<!-- Generator: Adobe Illustrator 16.0.0, SVG Export Plug-In . SVG Version: 6.00 Build 0)  -->
<!DOCTYPE svg PUBLIC "-//W3C//DTD SVG 1.1//EN" "http://www.w3.org/Graphics/SVG/1.1/DTD/svg11.dtd">
<svg version="1.1" id="Calque_1" xmlns="http://www.w3.org/2000/svg" xmlns:xlink="http://www.w3.org/1999/xlink" x="0px" y="0px"
	 width="373.178px" height="95.911px" viewBox="0 0 373.178 95.911" enable-background="new 0 0 373.178 95.911"
	 xml:space="preserve">
<g>
	<defs>
		<rect id="SVGID_1_" y="0" width="373.178" height="95.911"/>
	</defs>
	<clipPath id="SVGID_2_">
		<use xlink:href="#SVGID_1_"  overflow="visible"/>
	</clipPath>
	<path clip-path="url(#SVGID_2_)" fill="#662773" d="M134.621,34.517l-8.48,47.957c-0.305,1.888-1.144,3.409-2.515,4.565
		c-1.371,1.157-3.003,1.734-4.892,1.734c-2.559,0-4.357-1.276-5.393-3.832L101.18,53.47l-5.336,29.762
		c-0.334,1.857-0.905,3.247-1.717,4.164c-0.812,0.919-2.12,1.378-3.924,1.378c-1.924,0-3.444-0.577-4.558-1.732
		c-1.114-1.154-1.488-2.735-1.124-4.741l8.477-48.048c0.366-2.006,1.201-3.555,2.508-4.65c1.306-1.094,2.811-1.641,4.513-1.641
		c2.918,0,4.924,1.429,6.018,4.285l11.853,30.908l5.247-29.672c0.328-1.859,0.902-3.241,1.719-4.153
		c0.818-0.912,2.134-1.368,3.951-1.368c1.937,0,3.483,0.577,4.633,1.731C134.592,30.846,134.985,32.454,134.621,34.517"/>
	<path clip-path="url(#SVGID_2_)" fill="#662773" d="M176.919,50.192l-5.651,32.275c-0.727,4.205-2.847,6.307-6.359,6.307
		c-3.209,0-4.996-1.276-5.359-3.829l-0.091-0.729c-2.906,3.343-6.601,5.015-11.08,5.015c-3.891,0-6.945-1.124-9.163-3.374
		c-2.22-2.248-3.328-5.227-3.328-8.935c0-0.667,0.121-1.854,0.365-3.556l4.293-24.298c0.339-1.918,0.981-3.378,1.929-4.379
		c0.946-1,2.398-1.502,4.353-1.502c2.065,0,3.675,0.624,4.828,1.869c1.155,1.245,1.519,2.962,1.095,5.15l-3.931,22.244
		c-0.112,0.853-0.168,1.429-0.168,1.734c0,2.798,1.671,4.195,5.015,4.195c1.762,0,3.296-0.639,4.604-1.915
		c1.306-1.276,2.142-2.918,2.507-4.923l4.02-22.428c0.362-1.944,1.011-3.419,1.945-4.422c0.935-1.003,2.366-1.506,4.296-1.506
		c2.05,0,3.649,0.623,4.797,1.865C176.982,46.296,177.343,48.009,176.919,50.192"/>
	<path clip-path="url(#SVGID_2_)" fill="#662773" d="M203.385,54.583h-3.658l-4.991,28.263c-0.365,1.946-1.02,3.42-1.96,4.424
		c-0.942,1.002-2.386,1.504-4.328,1.504c-2.067,0-3.678-0.623-4.833-1.869c-1.153-1.245-1.518-2.963-1.092-5.151l4.799-27.17h-1.564
		c-1.41,0-2.621-0.485-3.633-1.458c-1.01-0.972-1.516-2.127-1.516-3.465c0-1.518,0.515-2.826,1.548-3.921
		c1.032-1.094,2.277-1.64,3.735-1.64h3.279l1.193-6.747c0.364-1.945,1.017-3.419,1.959-4.422c0.941-1.003,2.384-1.504,4.329-1.504
		c2.065,0,3.661,0.623,4.785,1.868c1.123,1.245,1.505,2.962,1.14,5.15l-0.999,5.655h1.938c1.416,0,2.634,0.487,3.648,1.459
		c1.016,0.972,1.525,2.128,1.525,3.463c0,1.521-0.52,2.826-1.557,3.921C206.096,54.037,204.847,54.583,203.385,54.583"/>
	<path clip-path="url(#SVGID_2_)" fill="#662773" d="M225.281,59.142l5.652,1.824c7.051,2.249,10.577,6.23,10.577,11.943
		c0,4.923-1.582,8.875-4.742,11.853c-3.161,2.979-7.841,4.468-14.04,4.468c-3.769,0-7.188-0.761-10.257-2.279
		c-3.07-1.519-5.151-3.524-6.246-6.018c-0.304-0.789-0.456-1.55-0.456-2.279c0-1.58,0.487-2.902,1.459-3.967
		c0.972-1.063,2.31-1.595,4.012-1.595c1.336,0,2.554,0.488,3.647,1.458c0.606,0.548,1.261,1.384,1.96,2.508
		c0.699,1.125,1.459,1.9,2.28,2.325c0.819,0.426,2.11,0.638,3.875,0.638c4.313,0,6.472-1.488,6.472-4.468
		c0-1.64-1.185-2.886-3.555-3.737l-7.202-2.462c-5.776-2.006-8.663-5.896-8.663-11.67c0-4.194,1.596-7.734,4.788-10.622
		c3.19-2.886,7.642-4.331,13.355-4.331c7.294,0,12.277,2.129,14.953,6.383c1.276,1.885,1.413,3.86,0.41,5.926
		c-1.003,2.067-2.689,3.1-5.06,3.1c-1.156,0-2.158-0.333-3.01-1.003c-0.669-0.547-1.413-1.336-2.232-2.37
		c-0.821-1.033-1.643-1.778-2.462-2.233c-0.821-0.456-1.96-0.685-3.419-0.685c-1.642,0-2.964,0.335-3.967,1.003
		c-1.003,0.67-1.505,1.611-1.505,2.827C221.907,57.259,223.031,58.414,225.281,59.142"/>
	<path clip-path="url(#SVGID_2_)" fill="#662773" d="M267.053,33.05l-2.425,13.826c2.934-2.763,6.417-4.145,10.451-4.145
		c3.889,0,6.959,1.201,9.208,3.601c2.248,2.403,3.374,5.548,3.374,9.437c0,0.788-0.152,2.028-0.458,3.723l-4.098,23.396
		c-0.346,1.975-0.969,3.447-1.87,4.424c-0.904,0.976-2.317,1.463-4.242,1.463c-2.066,0-3.692-0.623-4.877-1.869
		c-1.186-1.245-1.595-2.932-1.231-5.061l3.677-21.528c0.163-0.849,0.244-1.424,0.244-1.729c0-1.515-0.428-2.729-1.281-3.64
		c-0.855-0.91-2.075-1.366-3.661-1.366c-2.016,0-3.695,0.617-5.037,1.85c-1.341,1.233-2.196,2.872-2.563,4.916l-3.972,22.625
		c-0.337,1.918-0.959,3.363-1.865,4.34c-0.907,0.976-2.329,1.463-4.264,1.463c-2.056,0-3.675-0.623-4.855-1.869
		c-1.179-1.245-1.587-2.932-1.222-5.061l8.761-49.92c0.335-1.916,0.956-3.359,1.863-4.331c0.906-0.97,2.328-1.455,4.264-1.455
		c2.057,0,3.676,0.622,4.855,1.864C267.009,29.247,267.418,30.928,267.053,33.05"/>
	<path clip-path="url(#SVGID_2_)" fill="#662773" d="M325.007,80.204c-3.344,6.018-8.936,9.026-16.776,9.026
		c-5.046,0-9.209-1.322-12.491-3.967c-3.282-2.644-4.923-6.245-4.923-10.804c0-0.668,0.121-1.792,0.364-3.373l1.825-10.12
		c1.031-5.713,3.25-10.181,6.654-13.404c3.403-3.22,7.842-4.832,13.312-4.832c4.741,0,8.662,1.354,11.761,4.058
		c3.102,2.705,4.651,6.307,4.651,10.804c0,1.034-0.093,2.158-0.274,3.374l-0.272,1.641c-0.245,1.581-0.912,2.949-2.007,4.103
		c-1.095,1.155-2.523,1.732-4.284,1.732h-18.783l-0.638,4.012c-0.122,0.852-0.183,1.429-0.183,1.733c0,1.58,0.547,2.841,1.642,3.782
		c1.094,0.943,2.582,1.414,4.467,1.414c2.31,0,4.345-1.368,6.108-4.104c1.459-2.248,3.223-3.373,5.288-3.373
		c2.188,0,3.77,0.912,4.741,2.735S326.101,78.32,325.007,80.204 M305.404,59.416l-0.183,0.729h12.217l0.183-0.729
		c0.121-0.729,0.183-1.306,0.183-1.731c0-1.519-0.487-2.75-1.459-3.693c-0.973-0.941-2.34-1.413-4.103-1.413
		C308.898,52.578,306.619,54.857,305.404,59.416"/>
	<path clip-path="url(#SVGID_2_)" fill="#662773" d="M352.42,33.666l-8.677,49.345c-0.334,1.901-0.943,3.338-1.827,4.308
		c-0.883,0.972-2.3,1.456-4.249,1.456c-2.073,0-3.702-0.623-4.891-1.869c-1.188-1.245-1.6-2.932-1.235-5.061l8.754-49.811
		c0.338-1.917,0.975-3.38,1.908-4.386c0.933-1.005,2.363-1.509,4.29-1.509c2.067,0,3.678,0.668,4.833,2.004
		C352.48,29.479,352.845,31.32,352.42,33.666"/>
	<path clip-path="url(#SVGID_2_)" fill="#662773" d="M373.006,33.666l-8.677,49.345c-0.334,1.901-0.943,3.338-1.827,4.308
		c-0.883,0.972-2.3,1.456-4.249,1.456c-2.073,0-3.702-0.623-4.891-1.869c-1.188-1.245-1.6-2.932-1.235-5.061l8.754-49.811
		c0.338-1.917,0.975-3.38,1.908-4.386c0.933-1.005,2.363-1.509,4.29-1.509c2.067,0,3.678,0.668,4.833,2.004
		C373.066,29.479,373.431,31.32,373.006,33.666"/>
</g>
<g>
	<defs>
		<path id="SVGID_3_" d="M0.697,36.334C0.244,37.259,0.011,38.165,0,39.05v0.131c0.014,1.082,0.36,2.133,1.044,3.149
			c0.568,0.842,0.571,1.558,0.32,2.464c-0.981,3.529-1.393,7.146-1.025,10.785C1.7,69.002,7.221,80.53,16.611,90.156
			c4.96,5.083,10.802,7.132,17.618,4.791l5.27-20.896l-17.024,7.313L28.5,60.017l-11.696,9.128l-3.426-47.008
			C8.079,25.391,3.787,30.037,0.697,36.334"/>
	</defs>
	<clipPath id="SVGID_4_">
		<use xlink:href="#SVGID_3_"  overflow="visible"/>
	</clipPath>
	
		<linearGradient id="SVGID_5_" gradientUnits="userSpaceOnUse" x1="0" y1="95.9106" x2="1" y2="95.9106" gradientTransform="matrix(0 -73.7737 73.7737 0 -7055.9312 95.9106)">
		<stop  offset="0" style="stop-color:#FFED00"/>
		<stop  offset="1" style="stop-color:#F9B000"/>
	</linearGradient>
	<rect x="-0.029" y="22.137" clip-path="url(#SVGID_4_)" fill="url(#SVGID_5_)" width="39.528" height="75.151"/>
</g>
<g>
	<defs>
		<path id="SVGID_6_" d="M45.561,0c-1.51,0.028-2.846,0.775-4.156,2.298c-3.108,3.617-4.645,7.903-5.148,12.598
			c-0.056,0.516-0.103,1.035-0.153,1.553l-0.292,1.706l-7.297,31.049l23.114-16.588l-13.02,32.097l16.344-8.382L39.858,92.464
			c8.323-4.397,15.3-10.414,20.666-18.269c3.633-5.319,6.314-11.071,6.763-17.655c0.031-0.471,0.483-1.031,0.896-1.337
			c1.712-1.267,2.679-2.912,2.481-5.039c-0.839-9.056-4.177-16.995-10.75-23.417c-3.778-3.693-8.249-6.279-13.215-8.052
			c-0.461-0.164-1.181-0.739-1.135-1.009c0.427-2.453,0.705-5.039,3.073-6.573c1.311-0.851,2.689-1.603,4.047-2.382
			c1.654-0.949,1.923-1.852,0.91-3.476c-1.192-1.912-2.792-3.407-4.823-4.409C47.672,0.304,46.672,0.018,45.74,0H45.561z"/>
	</defs>
	<clipPath id="SVGID_7_">
		<use xlink:href="#SVGID_6_"  overflow="visible"/>
	</clipPath>
	
		<linearGradient id="SVGID_8_" gradientUnits="userSpaceOnUse" x1="0" y1="95.9106" x2="1" y2="95.9106" gradientTransform="matrix(0 -92.4646 92.4646 0 -8818.7178 92.4731)">
		<stop  offset="0" style="stop-color:#FFED00"/>
		<stop  offset="1" style="stop-color:#F9B000"/>
	</linearGradient>
	<rect x="28.515" y="0" clip-path="url(#SVGID_7_)" fill="url(#SVGID_8_)" width="42.347" height="92.464"/>
</g>
</svg>
