<?xml version="1.0" encoding="utf-8"?>
<!-- Generator: Adobe Illustrator 23.0.1, SVG Export Plug-In . SVG Version: 6.00 Build 0)  -->
<svg version="1.1" id="Calque_1" xmlns="http://www.w3.org/2000/svg" xmlns:xlink="http://www.w3.org/1999/xlink" x="0px" y="0px"
	 viewBox="0 0 566.93 566.93" style="enable-background:new 0 0 566.93 566.93;" xml:space="preserve">
<style type="text/css">
	.st0{fill:#111111;}
	.st1{fill:#111111;}
</style>
<g>
	<path class="st0" d="M289.34,157.16l-6.45,45.47l-6.45-45.47c-0.51-3.56,1.97-6.86,5.54-7.37c3.56-0.51,6.86,1.97,7.36,5.53
		C289.43,155.94,289.43,156.58,289.34,157.16z"/>
	<path class="st0" d="M417.2,297.91l-45.47-6.45l45.47-6.45c3.56-0.51,6.86,1.97,7.36,5.53c0.51,3.56-1.97,6.86-5.54,7.37
		C418.42,298,417.78,297.99,417.2,297.91z"/>
	<path class="st0" d="M148.59,285.01l45.47,6.45l-45.47,6.45c-3.56,0.5-6.86-1.97-7.37-5.54c-0.5-3.56,1.97-6.86,5.53-7.36
		C147.37,284.92,148.01,284.93,148.59,285.01z"/>
	<path class="st0" d="M373.3,390.99l-27.59-36.71l36.71,27.59c2.88,2.16,3.46,6.24,1.29,9.12c-2.16,2.88-6.24,3.46-9.12,1.29
		C374.1,391.91,373.66,391.46,373.3,390.99z"/>
	<path class="st0" d="M192.49,191.94l27.59,36.71l-36.71-27.59c-2.88-2.16-3.46-6.24-1.29-9.12c2.16-2.88,6.24-3.46,9.12-1.29
		C191.69,191.01,192.13,191.47,192.49,191.94z"/>
	<path class="st0" d="M183.37,381.87l36.71-27.59l-27.59,36.71c-2.16,2.88-6.25,3.46-9.12,1.29c-2.88-2.16-3.46-6.24-1.29-9.12
		C182.45,382.67,182.9,382.22,183.37,381.87z"/>
	<path class="st0" d="M382.42,201.06l-36.71,27.59l27.59-36.71c2.16-2.88,6.25-3.46,9.12-1.29c2.88,2.16,3.46,6.25,1.29,9.12
		C383.34,200.26,382.89,200.7,382.42,201.06z"/>
	<path class="st0" d="M237.46,164.92l11.44,44.47l-23.36-39.53c-1.83-3.1-0.8-7.09,2.3-8.92c3.1-1.83,7.09-0.8,8.92,2.29
		C237.07,163.76,237.31,164.35,237.46,164.92z"/>
	<path class="st0" d="M156.35,336.9l44.47-11.44l-39.53,23.35c-3.1,1.83-7.09,0.8-8.92-2.29c-1.83-3.1-0.8-7.09,2.3-8.92
		C155.19,337.28,155.78,337.05,156.35,336.9z"/>
	<path class="st0" d="M409.44,246.03l-44.47,11.44l39.53-23.36c3.1-1.83,7.09-0.8,8.92,2.29c1.83,3.1,0.8,7.09-2.3,8.92
		C410.6,245.64,410.01,245.88,409.44,246.03z"/>
	<path class="st0" d="M161.28,234.11l39.53,23.36l-44.47-11.44c-3.48-0.9-5.58-4.45-4.69-7.93c0.9-3.49,4.45-5.58,7.93-4.69
		C160.19,233.56,160.78,233.81,161.28,234.11z"/>
	<path class="st0" d="M404.51,348.82l-39.53-23.35l44.47,11.44c3.48,0.9,5.58,4.45,4.69,7.93c-0.9,3.49-4.45,5.58-7.93,4.69
		C405.6,349.36,405.01,349.11,404.51,348.82z"/>
	<path class="st0" d="M340.25,169.85l-23.35,39.53l11.44-44.47c0.9-3.49,4.45-5.58,7.93-4.69s5.58,4.45,4.69,7.93
		C340.8,168.76,340.55,169.34,340.25,169.85z"/>
	<path class="st1" d="M282.8,371.72c-4.48-0.41-8.99-0.63-13.43-1.28c-5.5-0.81-9.81-3.76-12.53-8.61
		c-2.19-3.92-4.06-8.03-5.91-12.13c-1.25-2.76-2.93-4.94-5.5-6.7c-21.91-15.06-32.82-41.88-27.49-67.24
		c5.65-26.88,25.94-47.14,52.48-52.38c36.78-7.26,73.36,18.47,78.09,55.56c3.44,26.99-6.3,48.64-28.53,64.56
		c-1.4,1.01-2.63,2.49-3.46,4.02c-1.61,2.94-2.97,6.03-4.27,9.12c-4.36,10.32-12.32,14.86-23.28,14.72c-2.05-0.03-4.1,0-6.15,0
		L282.8,371.72z M298.61,323.85c-1.8,12.14-3.58,24.16-5.39,36.38c2.97-0.17,5.19-1.03,6.47-3.22c1.98-3.38,3.91-6.83,5.47-10.42
		c2.35-5.39,5.77-9.58,10.58-13.18c17.64-13.19,25.46-31.12,22.35-52.89c-4.48-31.42-33.2-51.97-64.46-46.97
		c-21.54,3.45-39.6,20.28-44.86,41.8c-5.33,21.8,3.07,45.15,21.42,58.01c5.54,3.88,9.13,8.69,11.59,14.79
		c1.3,3.24,3.04,6.35,4.95,9.29c1.77,2.73,4.79,2.98,8.45,3.15c-2.11-12.64-4.14-24.8-6.18-37c-4.91,0.31-8.91-0.28-12.16-3.27
		c-3.15-2.89-4.23-6.51-2.83-10.51c1.44-4.08,4.26-7.19,8.71-7.82c4.37-0.62,6.59,2.62,8.45,5.94c0.87,1.56,1.61,3.19,2.52,5.03
		c1.61-1.22,3.09-2.34,4.65-3.53c-0.62-0.93-1.21-1.62-1.59-2.41c-1.26-2.65-2.87-5.23-3.56-8.03c-1.41-5.73,1.44-10.04,7.02-11.22
		c4.55-0.96,9.01-0.7,12.22,3.11c3.21,3.8,2.36,8.15,0.57,12.32c-0.7,1.65-1.73,3.15-2.62,4.72c-0.31,0.55-0.65,1.07-1.05,1.74
		c1.27,1.06,2.43,2.03,3.62,3.03c1.16-2.47,2.03-4.77,3.27-6.86c1.7-2.83,4.45-3.93,7.11-2.96c3.23,1.18,5.99,3.06,7.84,6.05
		c2.24,3.61,1.77,8.03-1.16,11.11C307.05,323.13,303.32,324.01,298.61,323.85z M283.71,315.48c-2.21,1.55-4.35,2.92-6.32,4.51
		c-0.57,0.46-1,1.6-0.88,2.33c1.94,12.05,3.97,24.09,6.01,36.12c0.17,0.98-0.4,2.72,1.47,2.42c0.61-0.1,1.32-1.42,1.46-2.26
		c1.87-11.91,3.67-23.82,5.4-35.75c0.1-0.72-0.24-1.79-0.77-2.26C288.06,318.81,285.89,317.21,283.71,315.48z M283.41,302.99
		c0.29,0.02,0.58,0.04,0.86,0.06c0.73-1.78,1.56-3.53,2.11-5.37c0.18-0.6-0.33-2.01-0.62-2.04c-1.49-0.14-3.02-0.04-4.5,0.21
		c-0.21,0.04-0.47,1.5-0.24,2.11C281.68,299.7,282.59,301.33,283.41,302.99z M263.55,310.22c-0.32-0.01-0.63-0.02-0.95-0.03
		c-0.33,1.19-1.28,2.78-0.83,3.46c0.72,1.12,2.36,1.66,3.61,2.44c0.22-0.26,0.43-0.51,0.64-0.77
		C265.2,313.63,264.38,311.93,263.55,310.22z M300.6,315.53c0.26,0.24,0.52,0.49,0.78,0.74c1.04-0.82,2.29-1.49,2.99-2.54
		c0.2-0.3-1.19-1.66-2.19-3C301.49,312.82,301.05,314.18,300.6,315.53z"/>
	<path class="st1" d="M282.92,404.44c-5.74,0-11.48,0.01-17.22-0.01c-2.98-0.01-3.86-0.9-3.84-3.77c0.03-2.74,0.89-3.61,3.74-3.62
		c11.56-0.01,23.12-0.01,34.68,0c3.01,0,3.85,0.86,3.82,3.76c-0.03,2.76-0.87,3.62-3.72,3.62
		C294.57,404.46,288.74,404.44,282.92,404.44z"/>
	<path class="st1" d="M282.73,393.53c-5.58,0-11.15,0.01-16.73,0c-3.17-0.01-4.14-0.9-4.13-3.78c0-2.84,0.85-3.71,3.92-3.71
		c11.48-0.03,22.96-0.03,34.43,0c3.08,0.01,3.9,0.87,3.88,3.74c-0.02,2.83-0.94,3.74-3.91,3.75
		C294.37,393.54,288.55,393.53,282.73,393.53z"/>
	<path class="st1" d="M283.01,375.17c5.82,0,11.63-0.01,17.45,0.01c2.81,0.01,3.6,0.78,3.64,3.4c0.05,2.93-0.85,3.98-3.68,3.99
		c-11.63,0.03-23.27,0.03-34.9,0c-2.8-0.01-3.72-1.09-3.65-4.02c0.06-2.58,0.88-3.36,3.69-3.37
		C271.38,375.15,277.2,375.17,283.01,375.17z"/>
	<path class="st1" d="M296.69,408.27c0.23,4.75-6.8,9.18-14.06,9.01c-7.1-0.17-12.66-3.79-13.33-9.01
		C278.4,408.27,287.48,408.27,296.69,408.27z"/>
</g>
</svg>
